:SAMPLES-PER-SECOND 30
:FULLY-SPECIFIED
:DEGREES
321
root  -6.03822 36.0443 4.26728 176.111 -84.4608 174.431
RightUpLeg  -14.046 -23.7155 -8.20817
RightLeg  51.7628 -10.453 -14.2334
RightFoot  -23.0955 1.0449 11.6394
RightToes  6.35927e-011 1.30204e-014 -6.03759e-014
Spine  28.3744 5.40465 18.2384
Spine1  -6.50897 8.55086 11.8927
HEad  0.895204 13.4012 -13.7216
LeftShoulder1  1.39429 -1.73011 -20.1867
LeftArm  -34.0897 25.9411 -42.1055
LeftForeArm  -178.205 -65.1278 -160.084
LeftHand  -9.59458 32.8294 -36.1132
RightShoulder  1.60853 3.51813 16.2473
RightArm  13.8163 7.52166 61.4998
RightForeArm  -158.435 69.42 157.81
RightHand  -3.7712 -14.3778 43.5524
LeftUpLeg  -36.681 18.9197 10.7124
LeftLeg  76.0676 2.49477 12.7572
LeftFoot  11.0715 2.17783 -11.2895
LeftToes  7.40077e-010 7.2695e-011 -6.03601e-011
322
root  -5.9405 36.7134 5.52398 -174.137 -83.9466 165.333
RightUpLeg  -13.2838 -22.5906 -10.7309
RightLeg  47.9058 -12.2276 -14.4262
RightFoot  -21.5859 0.970818 12.4122
RightToes  6.35927e-011 1.30204e-014 -6.03759e-014
Spine  27.3304 4.70063 17.9955
Spine1  -6.99519 8.08644 8.67354
HEad  1.45837 11.8674 -12.9201
LeftShoulder1  1.41454 -1.93105 -19.5268
LeftArm  -32.4378 26.2395 -42.3914
LeftForeArm  -178.633 -65.3927 -159.805
LeftHand  -8.41999 30.7991 -34.4353
RightShoulder  1.57773 3.28313 16.6188
RightArm  14.5043 3.28297 60.341
RightForeArm  -155.484 68.6658 158.931
RightHand  -2.74195 -12.9975 37.7425
LeftUpLeg  -30.0438 13.8812 14.0416
LeftLeg  70.46 3.93943 13.1181
LeftFoot  9.0462 1.80908 -10.3518
LeftToes  7.40077e-010 7.2695e-011 -6.03601e-011
323
root  -5.9003 37.1963 6.784 -163.637 -82.54 155.483
RightUpLeg  -13.5378 -21.3771 -13.857
RightLeg  45.4688 -13.3474 -14.4132
RightFoot  -19.5831 0.790063 12.7819
RightToes  6.35927e-011 1.30204e-014 -6.03759e-014
Spine  26.2288 4.21819 17.7478
Spine1  -7.21489 7.85848 4.34372
HEad  2.24907 9.9108 -12.3101
LeftShoulder1  1.39056 -1.93071 -19.0557
LeftArm  -30.6832 26.7129 -42.0865
LeftForeArm  -177.562 -65.209 -160.077
LeftHand  -7.27199 28.2658 -33.1893
RightShoulder  1.57754 3.25674 16.7164
RightArm  15.1282 -1.53274 59.9474
RightForeArm  -154.634 67.853 159.848
RightHand  -1.84105 -11.8807 29.6217
LeftUpLeg  -22.9313 9.57294 14.9676
LeftLeg  62.5671 4.93651 10.9078
LeftFoot  8.9195 1.83591 -10.5075
LeftToes  7.40077e-010 7.2695e-011 -6.03601e-011
324
root  -5.92441 37.3959 8.02305 -151.431 -80.9877 144.139
RightUpLeg  -14.6015 -20.6908 -17.8577
RightLeg  44.0093 -13.1453 -13.5284
RightFoot  -17.9221 0.697303 14.1951
RightToes  6.35927e-011 1.30204e-014 -6.03759e-014
Spine  24.6352 3.92479 16.6299
Spine1  -7.2858 7.4747 0.278351
HEad  2.79493 7.97122 -11.7899
LeftShoulder1  1.39302 -1.97237 -18.896
LeftArm  -28.4477 27.2422 -41.5411
LeftForeArm  -175.051 -65.3418 -160.215
LeftHand  -5.59441 25.1399 -29.7163
RightShoulder  1.60081 3.31681 16.864
RightArm  15.8725 -6.69283 59.5539
RightForeArm  -156.46 67.2904 160.231
RightHand  -0.906773 -10.5947 17.4418
LeftUpLeg  -16.2934 5.81652 13.5602
LeftLeg  53.407 4.76799 7.35112
LeftFoot  7.17149 2.51061 -15.7369
LeftToes  7.40077e-010 7.2695e-011 -6.03601e-011
325
root  -5.96443 37.2904 9.22705 -141.127 -78.3342 135.039
RightUpLeg  -17.1668 -19.7034 -22.3379
RightLeg  43.8787 -12.0643 -12.4271
RightFoot  -16.9431 0.689282 16.3488
RightToes  6.35927e-011 1.30204e-014 -6.03759e-014
Spine  22.9463 4.05394 14.6587
Spine1  -7.67078 7.3711 -4.67298
HEad  3.26574 6.14207 -10.9044
LeftShoulder1  1.46145 -2.31382 -18.5611
LeftArm  -26.1296 28.2837 -41.1477
LeftForeArm  -172.546 -66.0232 -159.859
LeftHand  -3.7212 21.628 -24.1999
RightShoulder  1.62763 3.37715 17.0648
RightArm  16.3405 -12.2962 59.4569
RightForeArm  -158.919 66.9506 160.327
RightHand  -0.192391 -8.57153 5.48108
LeftUpLeg  -10.5378 5.19759 10.4886
LeftLeg  44.6664 3.20255 3.82814
LeftFoot  0.587322 2.54597 -24.4997
LeftToes  7.40077e-010 7.2695e-011 -6.03601e-011
326
root  -5.95029 36.8232 10.381 -136.784 -74.2138 131.478
RightUpLeg  -21.4993 -17.5532 -27.1439
RightLeg  45.9527 -10.2039 -11.3818
RightFoot  -15.6955 0.55831 17.3591
RightToes  6.35927e-011 1.30204e-014 -6.03759e-014
Spine  22.2375 4.53041 11.8957
Spine1  -8.23442 7.6715 -10.7877
HEad  3.01492 4.56378 -10.1971
LeftShoulder1  1.5436 -2.70904 -18.2572
LeftArm  -24.6754 29.5406 -41.0864
LeftForeArm  -171.573 -66.7394 -159.292
LeftHand  -2.58172 18.8649 -20.3699
RightShoulder  1.63513 3.41441 17.0429
RightArm  15.9042 -17.3443 60.3999
RightForeArm  -161.013 66.5336 160.518
RightHand  -0.02354 -6.96375 0.0729172
LeftUpLeg  -5.92274 9.043 6.48553
LeftLeg  38.6085 -0.0869355 0.285429
LeftFoot  -10.0748 0.446703 -29.7912
LeftToes  7.40077e-010 7.2695e-011 -6.03601e-011
327
root  -5.78845 36.0667 11.464 -135.745 -70.9696 129.97
RightUpLeg  -25.527 -14.7625 -31.4062
RightLeg  49.074 -8.0985 -10.2062
RightFoot  -13.1499 0.175809 16.4993
RightToes  6.35927e-011 1.30204e-014 -6.03759e-014
Spine  22.7642 4.51727 8.94307
Spine1  -7.98287 7.50085 -14.8228
HEad  0.596154 3.56262 -10.3374
LeftShoulder1  1.60045 -2.7482 -19.0834
LeftArm  -24.2394 29.353 -41.5555
LeftForeArm  -172.933 -67.4831 -158.419
LeftHand  -2.72318 18.5229 -21.8987
RightShoulder  1.5958 3.25924 17.0021
RightArm  14.457 -20.4716 61.4097
RightForeArm  -164.179 66.3117 160.438
RightHand  -0.0597458 -6.52678 1.95245
LeftUpLeg  -3.89765 13.4387 2.83444
LeftLeg  37.8569 -2.82006 -1.97163
LeftFoot  -20.256 -2.05687 -27.7672
LeftToes  7.40077e-010 7.2695e-011 -6.03601e-011
328
root  -5.4516 35.2991 12.3202 -133.828 -70.6762 126.621
RightUpLeg  -27.3247 -12.7119 -33.9312
RightLeg  51.8783 -7.28856 -10.2175
RightFoot  -9.60419 -0.292732 14.9031
RightToes  6.35927e-011 1.30204e-014 -6.03759e-014
Spine  23.575 3.76081 5.70246
Spine1  -6.22284 6.30528 -14.9894
HEad  -3.97157 3.24323 -10.5432
LeftShoulder1  1.67992 -2.60682 -21.0948
LeftArm  -23.9025 26.5578 -43.1314
LeftForeArm  -176.695 -69.3914 -155.825
LeftHand  -4.40454 21.3004 -28.9931
RightShoulder  1.53022 2.83898 17.5906
RightArm  12.0921 -21.5905 60.7462
RightForeArm  -170.361 67.7603 158.39
RightHand  -0.139301 -6.99984 6.82125
LeftUpLeg  -4.88576 13.4239 0.343167
LeftLeg  41.7031 -1.93464 -1.36364
LeftFoot  -26.2056 -2.96115 -23.4888
LeftToes  7.40077e-010 7.2695e-011 -6.03601e-011
329
root  -5.08022 34.6745 12.893 -132.872 -72.7503 124.025
RightUpLeg  -27.7669 -12.0479 -34.0288
RightLeg  54.9047 -8.11592 -12.6087
RightFoot  -5.29637 -0.770198 13.8155
RightToes  6.35927e-011 1.30204e-014 -6.03759e-014
Spine  24.2556 2.76556 3.09694
Spine1  -3.84733 4.73938 -13.1631
HEad  -8.44559 3.55851 -9.33583
LeftShoulder1  1.84096 -2.84579 -22.6954
LeftArm  -22.729 22.3178 -46.0815
LeftForeArm  175.905 -73.2965 -148.775
LeftHand  -7.61681 25.7575 -38.8239
RightShoulder  1.51643 2.47609 18.9236
RightArm  8.80311 -21.6416 58.6556
RightForeArm  179.353 72.2139 151.103
RightHand  -0.414183 -8.82873 11.7855
LeftUpLeg  -6.87208 10.4227 0.102336
LeftLeg  47.203 -0.143055 0.28604
LeftFoot  -28.9312 -3.2431 -21.8109
LeftToes  7.40077e-010 7.2695e-011 -6.03601e-011
330
root  -4.8312 34.2783 13.1509 -137.427 -74.7405 127.053
RightUpLeg  -28.6924 -12.2766 -32.596
RightLeg  58.248 -8.30162 -14.5399
RightFoot  0.247868 -1.34058 13.1743
RightToes  6.35927e-011 1.30204e-014 -6.03759e-014
Spine  25.0896 2.40701 0.796931
Spine1  -2.17814 3.73367 -11.4712
HEad  -10.8821 4.54574 -6.60165
LeftShoulder1  2.05263 -3.54629 -22.8398
LeftArm  -20.7256 18.9722 -49.6343
LeftForeArm  160.728 -77.7609 -134.057
LeftHand  -10.9594 29.1223 -47.1964
RightShoulder  1.59537 2.49472 20.258
RightArm  5.33075 -21.4554 56.8525
RightForeArm  162.202 78.094 132.887
RightHand  -1.43769 -13.0145 19.1843
LeftUpLeg  -7.3062 9.31299 2.31243
LeftLeg  51.1289 -0.489397 -0.150021
LeftFoot  -30.9627 -3.63468 -21.858
LeftToes  7.40077e-010 7.2695e-011 -6.03601e-011
331
root  -4.71754 34.1755 13.0946 -147.617 -75.5015 136.105
RightUpLeg  -30.355 -12.922 -30.6708
RightLeg  60.6061 -5.83589 -11.5082
RightFoot  5.6392 -1.8203 12.4187
RightToes  6.35927e-011 1.30204e-014 -6.03759e-014
Spine  25.6155 3.04565 -2.63774
Spine1  -1.34165 3.22559 -8.88702
HEad  -11.6403 6.18993 -3.81204
LeftShoulder1  2.24319 -4.2613 -22.5897
LeftArm  -18.0704 17.3334 -52.4109
LeftForeArm  140.172 -80.0517 -116.123
LeftHand  -12.49 29.8803 -51.4751
RightShoulder  1.70692 2.77987 20.8729
RightArm  2.45159 -21.3437 55.81
RightForeArm  138.743 81.3014 103.438
RightHand  -3.7573 -17.8512 31.654
LeftUpLeg  -6.04162 10.4584 5.76288
LeftLeg  52.2591 -1.6229 -1.70902
LeftFoot  -32.3104 -3.86362 -21.6939
LeftToes  7.40077e-010 7.2695e-011 -6.03601e-011
332
root  -4.7139 34.379 12.8144 -159.134 -76.0758 147.276
RightUpLeg  -31.6327 -14.3306 -28.3032
RightLeg  61.2157 -2.03867 -4.59011
RightFoot  7.55129 -1.85794 11.4228
RightToes  6.35927e-011 1.30204e-014 -6.03759e-014
Spine  25.032 3.92698 -6.79273
Spine1  -0.571531 2.50463 -4.13116
HEad  -12.0496 8.32137 -2.03728
LeftShoulder1  2.36843 -4.59272 -22.9836
LeftArm  -14.3472 16.3513 -54.0299
LeftForeArm  133.071 -80.1306 -112.442
LeftHand  -11.8639 27.7896 -53.3672
RightShoulder  1.76136 2.96163 20.9531
RightArm  0.12836 -21.5975 54.364
RightForeArm  134.903 81.771 92.1883
RightHand  -6.30971 -20.0357 44.8532
LeftUpLeg  -4.62994 10.4962 9.2765
LeftLeg  51.2995 -1.5033 -1.50333
LeftFoot  -31.7457 -3.77366 -21.7984
LeftToes  7.40077e-010 7.2695e-011 -6.03601e-011
